<svg width="36" height="36" viewBox="0 0 36 36" fill="none" xmlns="http://www.w3.org/2000/svg">
<path d="M18 0C16.74 0 15.75 0.99 15.75 2.25C15.75 3.51 16.74 4.5 18 4.5C19.26 4.5 20.25 3.51 20.25 2.25C20.25 0.99 19.26 0 18 0ZM6.75 4.5C5.49 4.5 4.5 5.49 4.5 6.75C4.5 8.01 5.49 9 6.75 9C8.01 9 9 8.01 9 6.75C9 5.49 8.01 4.5 6.75 4.5ZM29.25 4.5C27.99 4.5 27 5.49 27 6.75C27 8.01 27.99 9 29.25 9C30.51 9 31.5 8.01 31.5 6.75C31.5 5.49 30.51 4.5 29.25 4.5ZM18 9C13.05 9 9 13.05 9 18C9 22.95 13.05 27 18 27C22.95 27 27 22.95 27 18C27 13.05 22.95 9 18 9ZM2.25 15.75C0.99 15.75 0 16.74 0 18C0 19.26 0.99 20.25 2.25 20.25C3.51 20.25 4.5 19.26 4.5 18C4.5 16.74 3.51 15.75 2.25 15.75ZM33.75 15.75C32.49 15.75 31.5 16.74 31.5 18C31.5 19.26 32.49 20.25 33.75 20.25C35.01 20.25 36 19.26 36 18C36 16.74 35.01 15.75 33.75 15.75ZM6.75 27C5.49 27 4.5 27.99 4.5 29.25C4.5 30.51 5.49 31.5 6.75 31.5C8.01 31.5 9 30.51 9 29.25C9 27.99 8.01 27 6.75 27ZM29.25 27C27.99 27 27 27.99 27 29.25C27 30.51 27.99 31.5 29.25 31.5C30.51 31.5 31.5 30.51 31.5 29.25C31.5 27.99 30.51 27 29.25 27ZM18 31.5C16.74 31.5 15.75 32.49 15.75 33.75C15.75 35.01 16.74 36 18 36C19.26 36 20.25 35.01 20.25 33.75C20.25 32.49 19.26 31.5 18 31.5Z" fill="white"/>
</svg>
